<?xml version="1.0" standalone="no"?>
<!DOCTYPE svg PUBLIC "-//W3C//DTD SVG 20010904//EN"
 "http://www.w3.org/TR/2001/REC-SVG-20010904/DTD/svg10.dtd">
<svg version="1.0" xmlns="http://www.w3.org/2000/svg"
 width="3000.000000pt" height="3000.000000pt" viewBox="0 0 3000.000000 3000.000000"
 preserveAspectRatio="xMidYMid meet">
<metadata>
Created by potrace 1.14, written by Peter Selinger 2001-2017
</metadata>
<g transform="translate(0.000000,3000.000000) scale(0.100000,-0.100000)"
fill="#000000" stroke="none">
<path d="M6290 16955 l0 -2575 520 0 520 0 0 1176 0 1177 93 -6 c178 -10 249
-52 280 -164 15 -54 17 -162 17 -1121 l0 -1062 510 0 510 0 0 958 c-1 526 -5
1016 -10 1089 -15 217 -65 381 -147 481 -46 57 -141 118 -215 140 -32 9 -58
19 -58 22 1 3 44 26 98 52 165 78 261 194 322 386 60 187 83 441 69 771 -21
518 -90 789 -253 989 -75 94 -167 160 -278 201 -152 57 -109 55 -1080 58
l-898 4 0 -2576z m1386 1606 c89 -40 114 -119 121 -383 8 -263 -17 -409 -84
-489 -46 -54 -74 -63 -230 -67 l-143 -4 0 481 0 481 148 0 c122 0 154 -4 188
-19z"/>
<path d="M9150 16955 l0 -2575 1065 0 1065 0 0 500 0 500 -540 0 -540 0 0 595
0 595 485 0 485 0 0 480 0 480 -485 0 -485 0 0 505 0 505 505 0 505 0 0 495 0
495 -1030 0 -1030 0 0 -2575z"/>
<path d="M11450 19040 l0 -490 305 0 305 0 0 -2085 0 -2085 515 0 515 0 0
2085 0 2085 305 0 305 0 0 490 0 490 -1125 0 -1125 0 0 -490z"/>
<path d="M13990 16955 l0 -2575 510 0 510 0 0 1170 0 1170 245 0 245 0 0
-1170 0 -1170 510 0 510 0 0 2575 0 2575 -510 0 -510 0 0 -920 0 -920 -245 0
-245 0 0 920 0 920 -510 0 -510 0 0 -2575z"/>
<path d="M16930 16955 l0 -2575 500 0 500 0 -2 2573 -3 2572 -497 3 -498 2 0
-2575z"/>
<path d="M18340 16955 l0 -2575 500 0 500 0 0 1282 c0 709 4 1278 9 1272 4 -5
122 -582 262 -1281 l254 -1273 502 0 503 0 0 2575 0 2575 -495 0 -495 0 -1
-1227 c0 -734 -4 -1220 -9 -1208 -5 11 -111 549 -234 1195 -124 646 -228 1190
-232 1208 l-6 32 -529 0 -529 0 0 -2575z"/>
<path d="M21330 16955 l0 -2575 510 0 510 0 1 1243 c0 736 4 1234 9 1222 5
-11 129 -553 275 -1205 146 -652 271 -1202 276 -1222 l10 -38 529 0 c292 0
530 3 530 6 0 3 -155 630 -345 1392 -190 762 -345 1391 -345 1399 0 9 491
2030 566 2327 l6 26 -515 0 c-482 0 -516 -1 -521 -17 -3 -10 -23 -94 -44 -188
-22 -93 -127 -545 -233 -1003 l-194 -832 -5 1017 -5 1018 -507 3 -508 2 0
-2575z"/>
<path d="M22794 13765 c-371 -57 -577 -269 -661 -680 -14 -70 -16 -198 -20
-985 -5 -948 0 -1085 38 -1274 52 -258 155 -438 311 -542 126 -84 276 -121
448 -111 241 14 398 105 530 306 15 22 17 17 75 -126 l61 -148 142 -3 142 -3
0 1031 0 1030 -435 0 -435 0 0 -300 0 -300 96 0 95 0 -3 -337 c-3 -326 -4
-340 -26 -395 -19 -47 -32 -63 -66 -83 -78 -46 -168 -30 -221 39 -54 71 -55
88 -55 1107 0 905 1 939 20 1001 29 96 86 138 185 138 53 0 104 -32 128 -81
25 -51 36 -160 37 -341 l0 -158 342 0 341 0 -6 178 c-9 234 -39 421 -92 574
-60 173 -184 318 -328 387 -171 81 -420 111 -643 76z"/>
<path d="M6310 11975 l0 -1775 730 0 730 0 0 345 0 345 -370 0 -370 0 0 410 0
410 335 0 335 0 0 330 0 330 -335 0 -335 0 0 350 0 350 345 0 345 0 0 340 0
340 -705 0 -705 0 0 -1775z"/>
<path d="M7901 13738 c0 -7 98 -805 217 -1773 l217 -1760 482 -3 481 -2 6 37
c3 21 101 810 216 1753 116 943 212 1725 214 1738 l3 22 -336 -2 -336 -3 -6
-65 c-165 -1731 -225 -2329 -231 -2304 -4 16 -62 538 -128 1159 -66 622 -123
1149 -126 1173 l-6 42 -334 0 c-261 0 -334 -3 -333 -12z"/>
<path d="M9940 11975 l0 -1775 730 0 730 0 0 345 0 345 -370 0 -370 0 0 410 0
410 335 0 335 0 0 330 0 330 -335 0 -335 0 0 350 0 350 345 0 345 0 0 340 0
340 -705 0 -705 0 0 -1775z"/>
<path d="M11640 11976 l0 -1776 355 0 355 0 0 811 0 812 75 -6 c83 -6 139 -29
167 -67 32 -45 37 -161 38 -862 l0 -688 345 0 345 0 0 718 c0 717 -3 783 -37
891 -34 108 -119 199 -209 223 -24 7 -44 15 -44 18 0 3 27 17 59 32 164 76
241 220 272 505 22 201 -3 551 -52 733 -59 219 -187 355 -381 407 -55 14 -144
17 -675 20 l-613 4 0 -1775z m960 1099 c16 -9 36 -28 44 -44 36 -69 48 -309
21 -435 -29 -137 -66 -166 -212 -166 l-93 0 0 330 0 330 105 0 c75 0 115 -4
135 -15z"/>
<path d="M13475 13738 c2 -7 130 -545 285 -1194 l280 -1182 0 -581 0 -581 330
0 330 0 0 575 0 576 280 1182 c154 650 283 1190 286 1200 5 16 -16 17 -344 17
l-350 0 -10 -57 c-5 -32 -49 -300 -98 -595 -49 -296 -91 -534 -94 -530 -4 4
-48 264 -99 577 -51 314 -95 578 -97 588 -5 16 -31 17 -354 17 -275 0 -348 -3
-345 -12z"/>
<path d="M15330 13410 l0 -340 210 0 210 0 0 -1435 0 -1435 355 0 355 0 0
1435 0 1435 210 0 210 0 0 340 0 340 -775 0 -775 0 0 -340z"/>
<path d="M17090 11975 l0 -1775 350 0 350 0 0 805 0 805 170 0 170 0 0 -805 0
-805 350 0 350 0 0 1775 0 1775 -350 0 -350 0 0 -635 0 -635 -170 0 -170 0 0
635 0 635 -350 0 -350 0 0 -1775z"/>
<path d="M19120 11975 l0 -1775 340 0 340 0 0 1775 0 1775 -340 0 -340 0 0
-1775z"/>
<path d="M20090 11975 l0 -1775 345 0 345 0 2 883 3 882 173 -865 c95 -476
175 -873 178 -882 5 -17 30 -18 350 -18 l344 0 0 1775 0 1775 -340 0 -340 0
-1 -847 c0 -494 -4 -840 -9 -828 -5 11 -80 392 -167 848 l-158 827 -362 0
-363 0 0 -1775z"/>
</g>
</svg>
