<?xml version="1.0" standalone="no"?>
<!DOCTYPE svg PUBLIC "-//W3C//DTD SVG 20010904//EN"
 "http://www.w3.org/TR/2001/REC-SVG-20010904/DTD/svg10.dtd">
<svg version="1.0" xmlns="http://www.w3.org/2000/svg"
 width="400.000000pt" height="400.000000pt" viewBox="0 0 400.000000 400.000000"
 preserveAspectRatio="xMidYMid meet">
<metadata>
Created by potrace 1.14, written by Peter Selinger 2001-2017
</metadata>
<g transform="translate(0.000000,400.000000) scale(0.100000,-0.100000)"
fill="#000000" stroke="none">
<path d="M3005 2496 c-63 -28 -70 -52 -70 -236 0 -176 9 -215 54 -240 29 -15
84 -12 110 6 22 16 24 16 33 0 5 -9 18 -16 29 -16 19 0 19 6 17 148 l-3 147
-60 0 -60 0 -3 -40 c-3 -28 1 -43 13 -51 23 -17 17 -97 -7 -102 -17 -3 -18 9
-18 147 0 143 1 151 19 151 16 0 20 -8 23 -37 3 -38 3 -38 51 -41 l47 -3 0 51
c0 43 -5 55 -32 85 -39 41 -95 53 -143 31z"/>
<path d="M842 2258 l3 -243 48 -3 47 -3 0 110 c0 91 3 111 15 111 11 0 15 -21
17 -107 l3 -108 50 0 50 0 3 102 c2 75 -1 110 -12 131 -12 23 -12 30 0 47 9
12 14 44 14 85 0 57 -4 71 -25 94 -23 25 -29 26 -120 26 l-95 0 2 -242z m133
112 c0 -18 -6 -35 -12 -37 -9 -3 -13 8 -13 37 0 29 4 40 13 38 6 -3 12 -20 12
-38z"/>
<path d="M1110 2255 l0 -246 103 3 102 3 0 50 0 50 -47 3 -48 3 0 50 0 49 45
0 45 0 0 50 0 50 -45 0 -45 0 0 45 0 45 45 0 45 0 0 45 0 45 -100 0 -100 0 0
-245z"/>
<path d="M1324 2476 c-10 -41 -1 -61 28 -64 l28 -3 2 -197 3 -197 50 0 50 0 3
198 2 197 31 0 c29 0 30 1 27 43 l-3 42 -107 3 c-107 3 -107 3 -114 -22z"/>
<path d="M1566 2478 c-8 -30 -8 -432 0 -452 4 -12 20 -16 55 -16 l49 0 0 110
c0 103 1 110 20 110 19 0 20 -7 20 -110 l0 -110 50 0 50 0 0 245 0 245 -50 0
-49 0 -3 -82 c-2 -66 -6 -83 -18 -83 -12 0 -16 17 -18 83 l-3 82 -48 0 c-42 0
-49 -3 -55 -22z"/>
<path d="M1845 2458 c-3 -24 -5 -133 -3 -243 l3 -200 50 0 50 0 0 240 0 240
-47 3 -47 3 -6 -43z"/>
<path d="M1980 2256 l0 -246 50 0 50 0 1 93 c1 96 2 95 29 -35 l11 -58 50 0
49 0 0 245 0 245 -44 0 c-41 0 -44 -2 -50 -31 -3 -17 -6 -52 -7 -78 -1 -44 -1
-43 -17 29 l-17 75 -52 3 -53 3 0 -245z"/>
<path d="M2266 2478 c-3 -13 -6 -123 -6 -245 l0 -223 50 0 50 0 1 98 1 97 18
-70 c10 -38 21 -82 24 -97 l6 -28 108 3 107 2 0 240 0 240 -44 3 c-28 2 -47
-1 -52 -10 -5 -7 -9 -114 -10 -238 l-1 -225 -33 128 -33 127 24 93 c33 129 34
127 -25 127 l-49 0 -20 -72 -20 -73 -1 73 -1 72 -44 0 c-37 0 -45 -4 -50 -22z"/>
<path d="M2655 2458 c-3 -24 -5 -133 -3 -243 l3 -200 50 0 50 0 5 85 5 85 14
-75 c19 -103 16 -100 72 -100 l49 0 0 245 0 245 -44 0 c-41 0 -44 -2 -50 -31
-3 -17 -6 -55 -7 -83 l-1 -51 -17 80 -16 80 -52 3 -52 3 -6 -43z"/>
<path d="M1282 1849 c-60 -18 -72 -53 -72 -219 0 -175 11 -207 76 -228 58 -18
113 1 136 48 23 46 26 292 4 345 -21 50 -80 72 -144 54z m58 -224 c0 -113 -2
-135 -15 -135 -13 0 -15 22 -15 135 0 113 2 135 15 135 13 0 15 -22 15 -135z"/>
<path d="M2160 1853 c-8 -3 -25 -15 -37 -26 -26 -23 -31 -81 -12 -134 9 -26 7
-36 -15 -68 -33 -49 -36 -143 -7 -192 21 -34 68 -51 97 -35 10 5 44 7 76 5 36
-4 58 -2 58 4 0 6 -10 33 -21 62 l-22 51 26 38 25 39 -22 28 -23 29 -18 -28
c-19 -28 -19 -28 -27 -6 -6 16 -2 30 13 51 46 64 32 150 -27 175 -36 15 -41
15 -64 7z m44 -90 c4 -9 2 -21 -4 -27 -7 -7 -10 -7 -10 1 0 6 -3 18 -6 27 -3
9 -2 16 4 16 5 0 13 -8 16 -17z m-26 -236 c16 -43 15 -57 -2 -57 -17 0 -26 22
-26 61 0 39 13 37 28 -4z"/>
<path d="M846 1841 c-5 -7 26 -331 39 -408 6 -32 7 -33 59 -33 l54 0 9 78 9
77 8 -77 8 -78 59 0 c32 0 59 4 59 9 0 16 40 386 45 414 4 26 3 27 -44 27
l-48 0 -7 -46 c-3 -26 -6 -64 -6 -86 0 -24 -4 -37 -10 -33 -5 3 -10 25 -10 48
0 23 -3 59 -6 80 -6 35 -8 37 -45 37 -21 0 -41 -5 -44 -10 -4 -6 -10 -44 -14
-85 -4 -41 -9 -77 -12 -80 -4 -3 -9 31 -12 75 -4 45 -9 85 -12 91 -8 11 -72
12 -79 0z"/>
<path d="M1470 1625 l0 -225 45 0 45 0 0 101 c0 76 3 100 13 97 8 -3 13 -35
15 -101 l3 -97 49 0 50 0 0 93 c0 56 -5 102 -13 117 -11 21 -11 29 1 48 10 15
13 42 10 88 -6 92 -22 104 -134 104 l-84 0 0 -225z m124 119 c8 -20 -2 -54
-15 -54 -5 0 -9 16 -9 35 0 37 13 47 24 19z"/>
<path d="M1710 1625 l0 -225 50 0 50 0 1 78 1 77 13 -50 c7 -27 16 -62 19 -77
6 -26 10 -28 56 -28 28 0 50 3 50 6 0 3 -13 58 -30 122 l-29 117 24 95 c14 52
25 98 25 103 0 4 -22 7 -49 7 l-50 0 -14 -62 -15 -63 -1 63 -1 62 -50 0 -50 0
0 -225z"/>
<path d="M2470 1625 l0 -225 95 0 95 0 0 40 0 40 -45 0 -45 0 0 185 0 185 -50
0 -50 0 0 -225z"/>
<path d="M2670 1625 l0 -226 47 3 47 3 -1 220 -2 220 -45 3 -46 3 0 -226z"/>
<path d="M2790 1625 l0 -225 50 0 50 0 0 100 0 100 40 0 40 0 0 45 0 45 -40 0
c-39 0 -40 1 -40 35 0 35 0 35 45 35 l45 0 0 45 0 45 -95 0 -95 0 0 -225z"/>
<path d="M3000 1625 l0 -225 95 0 95 0 0 45 0 45 -45 0 -45 0 0 50 0 50 40 0
40 0 0 45 0 45 -40 0 -40 0 0 40 0 40 40 0 40 0 0 45 0 45 -90 0 -90 0 0 -225z"/>
</g>
</svg>
